<svg id="visual" viewBox="0 0 1920 1080" width="1920" height="1080" xmlns="http://www.w3.org/2000/svg" xmlns:xlink="http://www.w3.org/1999/xlink" version="1.1"><rect x="0" y="0" width="1920" height="1080" fill="#001122"></rect><path d="M0 622L213 455L427 574L640 418L853 545L1067 563L1280 442L1493 431L1707 492L1920 616L1920 1081L1707 1081L1493 1081L1280 1081L1067 1081L853 1081L640 1081L427 1081L213 1081L0 1081Z" fill="#050404"></path><path d="M0 446L213 528L427 579L640 555L853 452L1067 529L1280 415L1493 660L1707 443L1920 438L1920 1081L1707 1081L1493 1081L1280 1081L1067 1081L853 1081L640 1081L427 1081L213 1081L0 1081Z" fill="#190909"></path><path d="M0 504L213 570L427 675L640 490L853 480L1067 670L1280 688L1493 625L1707 574L1920 534L1920 1081L1707 1081L1493 1081L1280 1081L1067 1081L853 1081L640 1081L427 1081L213 1081L0 1081Z" fill="#250e0c"></path><path d="M0 737L213 570L427 557L640 600L853 673L1067 618L1280 587L1493 672L1707 627L1920 574L1920 1081L1707 1081L1493 1081L1280 1081L1067 1081L853 1081L640 1081L427 1081L213 1081L0 1081Z" fill="#31100f"></path><path d="M0 633L213 659L427 783L640 755L853 792L1067 771L1280 768L1493 662L1707 761L1920 786L1920 1081L1707 1081L1493 1081L1280 1081L1067 1081L853 1081L640 1081L427 1081L213 1081L0 1081Z" fill="#3d1110"></path><path d="M0 794L213 779L427 781L640 767L853 756L1067 676L1280 755L1493 681L1707 812L1920 702L1920 1081L1707 1081L1493 1081L1280 1081L1067 1081L853 1081L640 1081L427 1081L213 1081L0 1081Z" fill="#4a1110"></path><path d="M0 807L213 799L427 772L640 832L853 722L1067 834L1280 794L1493 860L1707 865L1920 753L1920 1081L1707 1081L1493 1081L1280 1081L1067 1081L853 1081L640 1081L427 1081L213 1081L0 1081Z" fill="#56110f"></path><path d="M0 850L213 824L427 869L640 833L853 870L1067 847L1280 800L1493 830L1707 810L1920 840L1920 1081L1707 1081L1493 1081L1280 1081L1067 1081L853 1081L640 1081L427 1081L213 1081L0 1081Z" fill="#63110e"></path><path d="M0 840L213 884L427 909L640 920L853 849L1067 914L1280 914L1493 924L1707 868L1920 907L1920 1081L1707 1081L1493 1081L1280 1081L1067 1081L853 1081L640 1081L427 1081L213 1081L0 1081Z" fill="#6f120a"></path><path d="M0 954L213 912L427 924L640 913L853 972L1067 940L1280 979L1493 926L1707 963L1920 963L1920 1081L1707 1081L1493 1081L1280 1081L1067 1081L853 1081L640 1081L427 1081L213 1081L0 1081Z" fill="#7b1206"></path><path d="M0 973L213 995L427 996L640 970L853 1009L1067 996L1280 967L1493 967L1707 969L1920 990L1920 1081L1707 1081L1493 1081L1280 1081L1067 1081L853 1081L640 1081L427 1081L213 1081L0 1081Z" fill="#871400"></path></svg>